<svg id="Layer_1" data-name="Layer 1" xmlns="http://www.w3.org/2000/svg" xmlns:xlink="http://www.w3.org/1999/xlink" viewBox="0 0 33.99 95.64"><defs><style>.cls-1,.cls-10,.cls-15,.cls-8{fill:none;}.cls-2{fill:#4c5b60;}.cls-3{fill:#3e4b4f;}.cls-4{fill:#ccdde5;opacity:0.3;}.cls-10,.cls-12,.cls-15,.cls-4{isolation:isolate;}.cls-5{clip-path:url(#clip-path);}.cls-6{opacity:0.11;}.cls-7{fill:#102d3b;}.cls-8{stroke:#35495e;}.cls-15,.cls-8{stroke-linecap:round;stroke-linejoin:round;}.cls-9{fill:#ff9852;}.cls-10{stroke:#d85639;stroke-miterlimit:10;opacity:0.6;}.cls-11{fill:#fdba5d;}.cls-12{fill:#d85639;opacity:0.61;}.cls-13{fill:#d8dee9;}.cls-14{fill:#bf616a;}.cls-15{stroke:#102d3b;opacity:0.38;}</style><clipPath id="clip-path" transform="translate(205.76 -262.86)"><path class="cls-1" d="M-175.8,328.69h-27V290h27a1.74,1.74,0,0,1,1.76,1.73V326.9A1.78,1.78,0,0,1-175.8,328.69Z"/></clipPath></defs><path class="cls-2" d="M-175.8,328.69h-27V290h27a1.74,1.74,0,0,1,1.76,1.73V326.9A1.78,1.78,0,0,1-175.8,328.69Z" transform="translate(205.76 -262.86)"/><rect class="cls-3" x="25.36" y="27.09" width="2.35" height="38.75"/><rect class="cls-4" x="2.95" y="27.09" width="1.66" height="38.75"/><g class="cls-5"><g class="cls-6"><path class="cls-7" d="M-205.61,358.5a.14.14,0,0,1-.1,0,.14.14,0,0,1,0-.21L-172,324.56a.17.17,0,0,1,.21,0,.15.15,0,0,1,0,.21l-33.69,33.69A.15.15,0,0,1-205.61,358.5Z" transform="translate(205.76 -262.86)"/><path class="cls-7" d="M-205.61,357.13a.14.14,0,0,1-.1,0,.14.14,0,0,1,0-.21L-172,323.19a.17.17,0,0,1,.21,0,.15.15,0,0,1,0,.21l-33.69,33.69A.15.15,0,0,1-205.61,357.13Z" transform="translate(205.76 -262.86)"/><path class="cls-7" d="M-205.61,355.76a.14.14,0,0,1-.1,0,.14.14,0,0,1,0-.21L-172,321.82a.17.17,0,0,1,.21,0,.15.15,0,0,1,0,.21l-33.69,33.69A.15.15,0,0,1-205.61,355.76Z" transform="translate(205.76 -262.86)"/><path class="cls-7" d="M-205.61,354.39a.14.14,0,0,1-.1,0,.14.14,0,0,1,0-.21L-172,320.46a.14.14,0,0,1,.21,0,.13.13,0,0,1,0,.2l-33.69,33.69A.15.15,0,0,1-205.61,354.39Z" transform="translate(205.76 -262.86)"/><path class="cls-7" d="M-205.61,353a.14.14,0,0,1-.1,0,.14.14,0,0,1,0-.21L-172,319.09a.14.14,0,0,1,.21,0,.13.13,0,0,1,0,.2L-205.5,353A.15.15,0,0,1-205.61,353Z" transform="translate(205.76 -262.86)"/><path class="cls-7" d="M-205.61,351.65a.14.14,0,0,1-.1,0,.14.14,0,0,1,0-.21L-172,317.72a.15.15,0,0,1,.21,0,.13.13,0,0,1,0,.2l-33.69,33.69A.15.15,0,0,1-205.61,351.65Z" transform="translate(205.76 -262.86)"/><path class="cls-7" d="M-205.61,350.28a.14.14,0,0,1-.1,0,.14.14,0,0,1,0-.21L-172,316.35a.14.14,0,0,1,.21,0,.13.13,0,0,1,0,.2l-33.69,33.69A.15.15,0,0,1-205.61,350.28Z" transform="translate(205.76 -262.86)"/><path class="cls-7" d="M-205.61,348.91a.14.14,0,0,1-.1,0,.14.14,0,0,1,0-.21L-172,315a.14.14,0,0,1,.21,0,.13.13,0,0,1,0,.2l-33.69,33.69A.15.15,0,0,1-205.61,348.91Z" transform="translate(205.76 -262.86)"/><path class="cls-7" d="M-205.61,347.54a.14.14,0,0,1-.1,0,.14.14,0,0,1,0-.21L-172,313.61a.15.15,0,0,1,.21,0,.13.13,0,0,1,0,.2L-205.5,347.5A.15.15,0,0,1-205.61,347.54Z" transform="translate(205.76 -262.86)"/><path class="cls-7" d="M-205.61,346.17a.14.14,0,0,1-.1,0,.14.14,0,0,1,0-.21L-172,312.24a.15.15,0,0,1,.21,0,.13.13,0,0,1,0,.2l-33.69,33.69A.15.15,0,0,1-205.61,346.17Z" transform="translate(205.76 -262.86)"/><path class="cls-7" d="M-205.61,344.8a.14.14,0,0,1-.1,0,.14.14,0,0,1,0-.21L-172,310.87a.15.15,0,0,1,.21,0,.13.13,0,0,1,0,.2l-33.69,33.69A.15.15,0,0,1-205.61,344.8Z" transform="translate(205.76 -262.86)"/><path class="cls-7" d="M-205.61,343.43a.14.14,0,0,1-.1,0,.14.14,0,0,1,0-.21L-172,309.5a.14.14,0,0,1,.21,0,.13.13,0,0,1,0,.2l-33.69,33.69A.15.15,0,0,1-205.61,343.43Z" transform="translate(205.76 -262.86)"/><path class="cls-7" d="M-205.61,342.06a.14.14,0,0,1-.1,0,.14.14,0,0,1,0-.21L-172,308.13a.15.15,0,0,1,.21,0,.13.13,0,0,1,0,.2L-205.5,342A.15.15,0,0,1-205.61,342.06Z" transform="translate(205.76 -262.86)"/><path class="cls-7" d="M-205.61,340.69a.14.14,0,0,1-.1,0,.14.14,0,0,1,0-.21L-172,306.76a.15.15,0,0,1,.21,0,.13.13,0,0,1,0,.2l-33.69,33.69A.15.15,0,0,1-205.61,340.69Z" transform="translate(205.76 -262.86)"/><path class="cls-7" d="M-205.61,339.32a.14.14,0,0,1-.1,0,.14.14,0,0,1,0-.21L-172,305.39a.14.14,0,0,1,.21,0,.13.13,0,0,1,0,.2l-33.69,33.69A.15.15,0,0,1-205.61,339.32Z" transform="translate(205.76 -262.86)"/><path class="cls-7" d="M-205.61,338a.14.14,0,0,1-.1,0,.14.14,0,0,1,0-.21L-172,304a.14.14,0,0,1,.21,0,.13.13,0,0,1,0,.2l-33.69,33.69A.15.15,0,0,1-205.61,338Z" transform="translate(205.76 -262.86)"/><path class="cls-7" d="M-205.61,336.58a.14.14,0,0,1-.1,0,.13.13,0,0,1,0-.2L-172,302.65a.15.15,0,0,1,.21,0,.13.13,0,0,1,0,.2l-33.69,33.69A.15.15,0,0,1-205.61,336.58Z" transform="translate(205.76 -262.86)"/><path class="cls-7" d="M-205.61,335.21a.14.14,0,0,1-.1,0,.13.13,0,0,1,0-.2L-172,301.28a.15.15,0,0,1,.21,0,.13.13,0,0,1,0,.2l-33.69,33.69A.15.15,0,0,1-205.61,335.21Z" transform="translate(205.76 -262.86)"/><path class="cls-7" d="M-205.61,333.84a.14.14,0,0,1-.1,0,.13.13,0,0,1,0-.2L-172,299.91a.14.14,0,0,1,.21,0,.13.13,0,0,1,0,.2L-205.5,333.8A.15.15,0,0,1-205.61,333.84Z" transform="translate(205.76 -262.86)"/><path class="cls-7" d="M-205.61,332.47a.14.14,0,0,1-.1,0,.13.13,0,0,1,0-.2L-172,298.54a.14.14,0,0,1,.21,0,.13.13,0,0,1,0,.2l-33.69,33.69A.15.15,0,0,1-205.61,332.47Z" transform="translate(205.76 -262.86)"/><path class="cls-7" d="M-205.61,331.1a.14.14,0,0,1-.1,0,.13.13,0,0,1,0-.2L-172,297.17a.14.14,0,0,1,.21,0,.13.13,0,0,1,0,.2l-33.69,33.69A.15.15,0,0,1-205.61,331.1Z" transform="translate(205.76 -262.86)"/><path class="cls-7" d="M-205.61,329.73a.14.14,0,0,1-.1,0,.13.13,0,0,1,0-.2L-172,295.8a.14.14,0,0,1,.21,0,.13.13,0,0,1,0,.2l-33.69,33.69A.15.15,0,0,1-205.61,329.73Z" transform="translate(205.76 -262.86)"/><path class="cls-7" d="M-205.61,328.36a.14.14,0,0,1-.1,0,.13.13,0,0,1,0-.2L-172,294.43a.14.14,0,0,1,.21,0,.13.13,0,0,1,0,.2l-33.69,33.69A.15.15,0,0,1-205.61,328.36Z" transform="translate(205.76 -262.86)"/><path class="cls-7" d="M-205.61,327a.14.14,0,0,1-.1,0,.13.13,0,0,1,0-.2L-172,293.06a.14.14,0,0,1,.21,0,.13.13,0,0,1,0,.2L-205.5,327A.15.15,0,0,1-205.61,327Z" transform="translate(205.76 -262.86)"/><path class="cls-7" d="M-205.61,325.62a.14.14,0,0,1-.1,0,.13.13,0,0,1,0-.2L-172,291.69a.14.14,0,0,1,.21,0,.13.13,0,0,1,0,.2l-33.69,33.69A.15.15,0,0,1-205.61,325.62Z" transform="translate(205.76 -262.86)"/><path class="cls-7" d="M-205.61,324.25a.14.14,0,0,1-.1,0,.13.13,0,0,1,0-.2L-172,290.32a.14.14,0,0,1,.21,0,.13.13,0,0,1,0,.2l-33.69,33.69A.15.15,0,0,1-205.61,324.25Z" transform="translate(205.76 -262.86)"/><path class="cls-7" d="M-205.61,322.88a.14.14,0,0,1-.1,0,.13.13,0,0,1,0-.2L-172,289a.14.14,0,0,1,.21,0,.15.15,0,0,1,0,.21l-33.69,33.68A.15.15,0,0,1-205.61,322.88Z" transform="translate(205.76 -262.86)"/><path class="cls-7" d="M-205.61,321.51a.14.14,0,0,1-.1,0,.13.13,0,0,1,0-.2L-172,287.58a.14.14,0,0,1,.21,0,.15.15,0,0,1,0,.21l-33.69,33.68A.15.15,0,0,1-205.61,321.51Z" transform="translate(205.76 -262.86)"/><path class="cls-7" d="M-205.61,320.14a.14.14,0,0,1-.1,0,.13.13,0,0,1,0-.2L-172,286.21a.14.14,0,0,1,.21,0,.15.15,0,0,1,0,.21L-205.5,320.1A.15.15,0,0,1-205.61,320.14Z" transform="translate(205.76 -262.86)"/><path class="cls-7" d="M-205.61,318.77a.14.14,0,0,1-.1,0,.13.13,0,0,1,0-.2L-172,284.84a.14.14,0,0,1,.21,0,.15.15,0,0,1,0,.21l-33.69,33.68A.15.15,0,0,1-205.61,318.77Z" transform="translate(205.76 -262.86)"/><path class="cls-7" d="M-205.61,317.4a.14.14,0,0,1-.1,0,.13.13,0,0,1,0-.2L-172,283.47a.14.14,0,0,1,.21,0,.15.15,0,0,1,0,.21l-33.69,33.68A.15.15,0,0,1-205.61,317.4Z" transform="translate(205.76 -262.86)"/><path class="cls-7" d="M-205.61,316a.14.14,0,0,1-.1,0,.13.13,0,0,1,0-.2L-172,282.1a.15.15,0,0,1,.21,0,.15.15,0,0,1,0,.21L-205.5,316A.15.15,0,0,1-205.61,316Z" transform="translate(205.76 -262.86)"/><path class="cls-7" d="M-205.61,314.66a.14.14,0,0,1-.1,0,.13.13,0,0,1,0-.2L-172,280.73a.14.14,0,0,1,.21,0,.15.15,0,0,1,0,.21l-33.69,33.68A.15.15,0,0,1-205.61,314.66Z" transform="translate(205.76 -262.86)"/><path class="cls-7" d="M-205.61,313.29a.14.14,0,0,1-.1,0,.13.13,0,0,1,0-.2L-172,279.36a.15.15,0,0,1,.21,0,.15.15,0,0,1,0,.21l-33.69,33.68A.15.15,0,0,1-205.61,313.29Z" transform="translate(205.76 -262.86)"/><path class="cls-7" d="M-205.61,311.92a.14.14,0,0,1-.1,0,.13.13,0,0,1,0-.2L-172,278a.14.14,0,0,1,.21,0,.15.15,0,0,1,0,.21l-33.69,33.68A.15.15,0,0,1-205.61,311.92Z" transform="translate(205.76 -262.86)"/><path class="cls-7" d="M-205.61,310.55a.14.14,0,0,1-.1,0,.13.13,0,0,1,0-.2L-172,276.62a.15.15,0,0,1,.21,0,.15.15,0,0,1,0,.21l-33.69,33.68A.15.15,0,0,1-205.61,310.55Z" transform="translate(205.76 -262.86)"/><path class="cls-7" d="M-205.61,309.18a.14.14,0,0,1-.1,0,.13.13,0,0,1,0-.2L-172,275.25a.15.15,0,0,1,.21,0,.15.15,0,0,1,0,.21l-33.69,33.68A.15.15,0,0,1-205.61,309.18Z" transform="translate(205.76 -262.86)"/><path class="cls-7" d="M-205.61,307.81a.14.14,0,0,1-.1,0,.13.13,0,0,1,0-.2l33.69-33.7a.14.14,0,0,1,.21,0,.15.15,0,0,1,0,.21l-33.69,33.69A.15.15,0,0,1-205.61,307.81Z" transform="translate(205.76 -262.86)"/><path class="cls-7" d="M-205.61,306.44a.14.14,0,0,1-.1,0,.13.13,0,0,1,0-.2L-172,272.5a.15.15,0,0,1,.21,0,.15.15,0,0,1,0,.21L-205.5,306.4A.15.15,0,0,1-205.61,306.44Z" transform="translate(205.76 -262.86)"/><path class="cls-7" d="M-205.61,305.07a.19.19,0,0,1-.1,0,.14.14,0,0,1,0-.21L-172,271.12a.14.14,0,0,1,.21,0,.15.15,0,0,1,0,.21L-205.5,305A.2.2,0,0,1-205.61,305.07Z" transform="translate(205.76 -262.86)"/><path class="cls-7" d="M-205.61,303.7a.19.19,0,0,1-.1,0,.14.14,0,0,1,0-.21L-172,269.75a.15.15,0,0,1,.21,0,.15.15,0,0,1,0,.21l-33.69,33.71A.2.2,0,0,1-205.61,303.7Z" transform="translate(205.76 -262.86)"/><path class="cls-7" d="M-205.61,302.33a.19.19,0,0,1-.1,0,.14.14,0,0,1,0-.21L-172,268.38a.14.14,0,0,1,.21,0,.15.15,0,0,1,0,.21L-205.5,302.3A.2.2,0,0,1-205.61,302.33Z" transform="translate(205.76 -262.86)"/><path class="cls-7" d="M-205.61,301a.13.13,0,0,1-.1,0,.14.14,0,0,1,0-.21L-172,267a.15.15,0,0,1,.21,0,.15.15,0,0,1,0,.21l-33.69,33.71A.14.14,0,0,1-205.61,301Z" transform="translate(205.76 -262.86)"/><path class="cls-7" d="M-205.61,299.6a.14.14,0,0,1-.1,0,.14.14,0,0,1,0-.21L-172,265.64a.14.14,0,0,1,.21,0,.15.15,0,0,1,0,.21l-33.69,33.71A.15.15,0,0,1-205.61,299.6Z" transform="translate(205.76 -262.86)"/><path class="cls-7" d="M-205.61,298.23a.14.14,0,0,1-.1,0,.14.14,0,0,1,0-.21L-172,264.27a.15.15,0,0,1,.21,0,.15.15,0,0,1,0,.21l-33.69,33.71A.15.15,0,0,1-205.61,298.23Z" transform="translate(205.76 -262.86)"/><path class="cls-7" d="M-205.61,296.86a.14.14,0,0,1-.1,0,.14.14,0,0,1,0-.21L-172,262.9a.17.17,0,0,1,.21,0,.15.15,0,0,1,0,.21l-33.69,33.71A.15.15,0,0,1-205.61,296.86Z" transform="translate(205.76 -262.86)"/><path class="cls-7" d="M-205.61,295.49a.14.14,0,0,1-.1,0,.14.14,0,0,1,0-.21l30.6-30.62a.15.15,0,0,1,.21,0,.13.13,0,0,1,0,.2l-30.6,30.63A.15.15,0,0,1-205.61,295.49Z" transform="translate(205.76 -262.86)"/><path class="cls-7" d="M-205.61,294.12a.14.14,0,0,1-.1,0,.14.14,0,0,1,0-.21l28.7-28.72a.17.17,0,0,1,.21,0,.15.15,0,0,1,0,.21l-28.7,28.72A.15.15,0,0,1-205.61,294.12Z" transform="translate(205.76 -262.86)"/></g></g><path class="cls-8" d="M-175.8,328.69h-27V290h27a1.74,1.74,0,0,1,1.76,1.73V326.9A1.78,1.78,0,0,1-175.8,328.69Z" transform="translate(205.76 -262.86)"/><rect class="cls-8" x="2.95" y="27.09" width="3.33" height="38.75"/><rect class="cls-9" x="2.95" y="38.24" width="28.77" height="10.96"/><line class="cls-10" x1="6.28" y1="38.24" x2="6.28" y2="49.2"/><rect class="cls-11" x="2.95" y="38.24" width="1.66" height="10.96"/><rect class="cls-12" x="26.04" y="38.24" width="1.66" height="10.96"/><rect class="cls-8" x="2.95" y="38.24" width="28.77" height="10.96"/><path class="cls-13" d="M-179.7,329.48h-1.2a.58.58,0,0,1-.57-.57V289.73a.58.58,0,0,1,.57-.57h1.2a.57.57,0,0,1,.57.57V328.9A.57.57,0,0,1-179.7,329.48Z" transform="translate(205.76 -262.86)"/><path class="cls-8" d="M-179.7,329.48h-1.2a.58.58,0,0,1-.57-.57V289.73a.58.58,0,0,1,.57-.57h1.2a.57.57,0,0,1,.57.57V328.9A.57.57,0,0,1-179.7,329.48Z" transform="translate(205.76 -262.86)"/><polygon class="cls-14" points="8.92 70.31 5.98 68.67 5.98 65.83 8.92 65.83 8.92 70.31"/><rect class="cls-14" x="5.98" y="65.83" width="2.94" height="1.11"/><polygon class="cls-8" points="8.92 70.31 5.98 68.67 5.98 65.83 8.92 65.83 8.92 70.31"/><path class="cls-15" d="M-199.48,301.1" transform="translate(205.76 -262.86)"/></svg>